# xmcd
#
# Track frame offsets: 
#        150
#        21263
#        37798
#        67268
#        81843
#        98288
#        119570
#        127112
#        141009
#        154855
#        176231
#
# Disc length: 2594 seconds
#
# Revision: 0
# Processed by: cddbd v1.5.1PL2 Copyright (c) Steve Scherf et al.
# Submitted via: ExactAudioCopy v0.95b4
#
DISCID=940a200b
DTITLE=Turnip Greens - Come Around
DYEAR=1900
DGENRE=Blues
TTITLE0=01 - You're My Baby
TTITLE1=02 - Burnell Williams
TTITLE2=03 - This Feelin'
TTITLE3=04 - Cabin On Burbon Street
TTITLE4=05 - Worried Mind Blues
TTITLE5=06 - Don't Be Sad
TTITLE6=07 - Riff no. 9
TTITLE7=08 - Come Around
TTITLE8=09 - Memphis
TTITLE9=10 - In The Back Of The Roon
TTITLE10=11 - Okay
EXTD=
EXTT0=
EXTT1=
EXTT2=
EXTT3=
EXTT4=
EXTT5=
EXTT6=
EXTT7=
EXTT8=
EXTT9=
EXTT10=
PLAYORDER=
